<?xml version="1.0" encoding="utf-8"?>
<!-- Generator: Adobe Illustrator 23.1.0, SVG Export Plug-In . SVG Version: 6.00 Build 0)  -->
<svg version="1.1" id="Layer_1" xmlns="http://www.w3.org/2000/svg" xmlns:xlink="http://www.w3.org/1999/xlink" x="0px" y="0px"
	 viewBox="0 0 3000 3000" style="enable-background:new 0 0 3000 3000;" xml:space="preserve">
<style type="text/css">
	.st0{fill:#FFFFFF;stroke:#1B1A1F;stroke-width:23.7951;}
	.st1{fill:#1B1A1F;}
	.st2{fill:#1B1A1F;stroke:#1B1A1F;stroke-width:11.8975;}
	.st3{fill:#FFFFFF;}
	.st4{fill:none;stroke:#1B1A1F;stroke-width:23.7951;stroke-linecap:round;stroke-linejoin:round;}
	.st5{fill:none;stroke:#1B1A1F;stroke-width:71.3851;stroke-linecap:round;}
	.st6{fill:#316EEA;}
	.st7{fill:none;stroke:#1B1A1F;stroke-width:37.0995;}
	.st8{fill:none;stroke:#FFFFFF;stroke-width:11.8975;}
	.st9{fill:none;stroke:#1B1A1F;stroke-width:22.2597;stroke-linecap:round;stroke-linejoin:round;}
	.st10{fill:none;stroke:#1B1A1F;stroke-width:22.2597;stroke-linecap:round;}
	.st11{fill-rule:evenodd;clip-rule:evenodd;fill:#FFFFFF;}
	.st12{fill:none;stroke:#1B1A1F;stroke-width:23.7951;}
	.st13{fill:none;stroke:#1B1A1F;stroke-width:16.9174;stroke-linecap:round;stroke-linejoin:round;}
</style>
<path class="st0" d="M1430.87,837.81c35.15-133.06,12.09-168.64-9.51-218.86c-198.66,196.78-206.74,348.86-142.73,651.81
	c111.34-52.11,119.62-150.33,128.45-333.04L1430.87,837.81z"/>
<path class="st1" d="M1316.45,922.37c15.34-11.46,23.59-9,30.2,8.72c2.67,7.17-0.28,15.11-6.4,19.71c-9.18,6.91-22.36,4.07-27.9-6
	C1308.18,937.23,1309.51,927.55,1316.45,922.37z"/>
<path class="st1" d="M1390.56,864.51c-14,29.39-72.66,16.9-63.36-23.94c1.05-4.6,5.39-7.61,10.11-7.48
	c18.23,0.49,31.02,5.65,49.85,20.12C1390.66,855.91,1392.47,860.52,1390.56,864.51z"/>
<path class="st2" d="M1330.96,742.65c28,41.53,50.93,55.83,99.91,71.37c33.66-90.03,13.86-128.41-9.51-214.1L1330.96,742.65z"/>
<path class="st3" d="M1239.21,1128.03l67.97-347.32l-9.06-99.91l-312.65-38.06l-249.21,708.9l289.99,99.91l67.97-253.96
	C1179.28,1210.75,1213.04,1188.67,1239.21,1128.03z"/>
<path class="st4" d="M1017.18,1180.36c29.61,8.06,55.03,13.82,77.03,17.23 M1094.21,1197.59c85.08,13.16,118.84-8.92,145-69.56
	l67.97-347.32l-9.06-99.91l-312.65-38.06l-249.21,708.9l289.99,99.91L1094.21,1197.59z"/>
<path class="st4" d="M1055.02,890.14c35.9,2.7,55.86,3.48,90.4,0 M1169.2,994.81c18.05,3.85,33.3,4.76,33.3-19.03V866.94
	c0-13.03,1.6-26.01,4.76-38.65l0,0"/>
<path class="st1" d="M1167.73,794.99h-15.62c-6.4,0-11.9,5.11-11.09,11.45c2.2,17.24,12.59,18.15,29.92,17.26
	c1.97-0.1,3.92-0.69,5.55-1.82c5.51-3.8,8.42-7.4,10.02-12.26c1.83-5.51-2.4-10.91-8.04-12.32l-7.86-1.96
	C1169.68,795.11,1168.7,794.99,1167.73,794.99z"/>
<path class="st4" d="M1116.86,994.81c5.92,14.81,10.8,25.05,18.5,33.3c4.99,5.36,11.17,9.88,19.57,14.27"/>
<path class="st5" d="M1502.24,1580.01l-152.25,808.81"/>
<path class="st6" d="M1516.51,2174.73c-129.36-340.34-152.11-402.17-299.73-746.96c-21.93-39.84-64.94-82.97-135.81-105.9
	c-6.36-2.06-13.01,1.86-15,8.24c-40.75,130.81-164.86,91.77-293.1-34.07c-2.12-2.08-4.98-3.35-7.96-3.46
	c-175.41-6.48-330.13,15.45-314.13,54.31l-95.16,856.39L1516.51,2174.73z"/>
<path class="st3" d="M212.9,2160.93c12.84-256.85,51.99-621.26,114.19-732.69c43.99-78.81,90.39-104.75,142.73-99.91
	c45.87,4.24,98.51,29.38,128.46,99.91c48.64,114.55,62.76,327.05,31.16,623.03l281.02-134.53
	c77.12-36.92,190.44-75.74,269.31-108.75c48.65-20.36,62.78-34.44,105.87-64.86c29.27-20.66,65.3-45.21,100.87-67.16
	c34.93-21.55,79.22-16.79,110.98,9.2c119.82,97.27,137.97,141.25,99.92,204.58c-4.43,40.28-7.18,63.02-23.79,109.43
	c-1.05,45.96-6.46,66.6-23.79,95.15c0.55,10.5-0.53,20.09-3.06,28.95c-43.46,152.08-238.51,194.15-384.29,255.53
	c-94.4,39.74-192.74,88.92-288.28,125.82c-57.15,22.07-119.35,40.74-190.56,61.79c-82.17,24.3-197.21,52.35-282,40.02
	c-139.02-20.22-178.35-162.3-185.92-302.58C213.47,2262.67,212.84,2216.55,212.9,2160.93z"/>
<path class="st4" d="M1549.82,2094.32c0.55,10.5-0.53,20.09-3.06,28.95c-43.46,152.08-238.51,194.15-384.29,255.53l0,0
	c-94.4,39.74-192.74,88.92-288.28,125.82c-57.15,22.07-119.35,40.74-190.56,61.79c-82.17,24.3-197.21,52.35-282,40.02l0,0
	c-139.02-20.22-178.35-162.3-185.92-302.58c-2.22-41.18-2.85-87.3-2.8-142.92c12.84-256.85,51.99-621.26,114.19-732.69
	c43.99-78.81,90.39-104.75,142.73-99.91c45.87,4.24,98.51,29.38,128.46,99.91c48.64,114.55,62.76,327.05,31.16,623.03l-50.19,24.03
	l331.21-158.56c77.12-36.92,190.44-75.74,269.31-108.75l0,0c48.65-20.36,62.78-34.44,105.87-64.86
	c29.27-20.66,65.3-45.21,100.87-67.16c34.93-21.55,79.22-16.79,110.98,9.2l0,0c119.82,97.27,137.97,141.25,99.92,204.58
	 M1549.82,2094.32c17.33-28.55,22.73-49.19,23.79-95.15 M1549.82,2094.32l-47.58,28.54 M1573.61,1999.17
	c16.61-46.41,19.36-69.15,23.79-109.43 M1573.61,1999.17l-52.34,42.82 M1597.4,1889.74l-66.61,71.36"/>
<path class="st4" d="M1419.7,1737.02c25.66,33.91,40.3,51.22,73.78,33.14"/>
<path class="st1" d="M1127.78,591.35c155.02,13.64,221.29,55.12,198.43,184.61l-99.92-90.4
	c-72.3,108.18-134.86,136.39-256.91,171.28l-61.85,157c96.9,269.8,19.03,385.38-133.22,333.04l-1.13-0.39
	c-19.46,76.73-240.68,99.73-227.84-110.51c0.29-4.77-2.21-9.5-6.36-11.86c-115.44-65.84-119.85-191.71-35.86-215.03
	c85.64-23.79,152.25-47.58,152.25-47.58c90.72-52.28,124.19-97.35,163.37-185c56.41-164.76,111.45-183.77,250.47-185.47
	c-113.78-44.88-141.89-241.12,28.63-181.43C1188.27,345.59,1268.25,507.37,1127.78,591.35z"/>
<path class="st7" d="M1912.04,1078.64c-19.71,153.81-76.86,287.13-152.36,378.44c-75.68,91.52-167.74,138.77-258.23,127.17
	c-90.49-11.6-167.66-80.54-217.81-188.18c-50.04-107.39-71.73-250.82-52.01-404.63c19.71-153.81,76.86-287.13,152.36-378.44
	c75.68-91.52,167.73-138.77,258.23-127.17c90.49,11.6,167.66,80.54,217.81,188.18C1910.06,781.4,1931.75,924.83,1912.04,1078.64z"/>
<path class="st5" d="M1502.24,1584.41l-14.94,85.64l-13.6,80.88"/>
<path class="st1" d="M1078.8,1265.65c-34.14-66.77-66.08-48.05-66.61-85.64l80.88,14.28L1078.8,1265.65z"/>
<path class="st8" d="M547.23,1229.82C595.24,927.26,854.01,1218.1,547.23,1229.82z"/>
<path class="st8" d="M771.16,1342.13C855.75,1167.38,615.14,1226.23,771.16,1342.13z"/>
<path class="st8" d="M1089.49,404.35C1004.89,579.1,1245.5,520.25,1089.49,404.35z"/>
<path class="st9" d="M2168.49,1223.85l16.76,16.76c5.78,5.78,15.52,4.16,19.11-3.18l93.45-191.16c2.32-4.73,7.48-7.38,12.66-6.46
	c49.84,8.87,63.11,15.24,72.12-25.3c62.59-147.55,49.56-181.65,154.38-106.24c11.58,8.33,27.88,4.96,34.95-7.42l24.77-43.34
	l90.4-137.97 M2687.08,719.53c20.97,30.88,20.38,46.98,23.79,76.12 M2687.08,719.53c-21.58,8.06-33,10.03-52.33,9.52"/>
<path class="st10" d="M2354.04,1514.07l-4.64-394.35c-0.07-5.81,4.1-10.88,9.86-11.64c74.24-9.88,107.43,34.15,89.94,439.29
	 M2501.53,1514.07l-30.16-426.59c-1.61-22.79,18.3-41.2,40.9-37.82l22.18,3.33c16.82,2.52,29.53,16.57,30.35,33.57l22.37,460.81"/>
<path class="st9" d="M2135.19,1014.51c12.53,291.6,21.8,447.69,95.15,537.63c246.53-0.52,421.12-17.69,556.66,33.3 M2135.19,1014.51
	c-9.16,34.76-11.92,54.03-38.06,90.4 M2135.19,1014.51c15.51,33.6,23.51,52.91,61.84,71.37 M2787,1585.44
	c-16.1-24.14-29.26-36.91-66.61-57.09 M2787,1585.44c-29.12,9.62-40.03,20.63-52.34,47.58"/>
<path class="st10" d="M2244.62,1518.83l-12.27-151.19c-1.21-14.93,6.85-29.59,21.09-34.2c48.82-15.8,71.61,11.19,72.05,185.39"/>
<path class="st11" d="M2153.28,1968.62l-142.25-59.66c-2.92-1.22-6.23-1-8.96,0.6l-308.65,181.58c-4.67,2.75-6.31,8.72-3.69,13.47
	l136.89,248.14c2.72,4.93,8.98,6.66,13.84,3.81l333.43-195.63c3.41-2,5.32-5.82,4.88-9.74l-19.4-174.44
	C2158.96,1973.13,2156.63,1970.02,2153.28,1968.62z M2086.88,2078.83c23.65,0,42.82-19.17,42.82-42.82
	c0-23.65-19.17-42.82-42.82-42.82c-23.65,0-42.81,19.17-42.81,42.82C2044.07,2059.67,2063.23,2078.83,2086.88,2078.83z"/>
<path class="st1" d="M2011.03,1908.95l-4.61,10.97l0,0L2011.03,1908.95z M2153.28,1968.62l-4.6,10.97l0,0L2153.28,1968.62z
	 M2002.07,1909.55l-6.03-10.25l0,0L2002.07,1909.55z M1693.42,2091.13l-6.03-10.25l0,0L1693.42,2091.13z M1689.73,2104.6
	l-10.42,5.74l0,0L1689.73,2104.6z M1826.62,2352.74l10.42-5.74l0,0L1826.62,2352.74z M1840.46,2356.55l6.02,10.26l0,0
	L1840.46,2356.55z M2173.89,2160.93l6.02,10.26l0,0L2173.89,2160.93z M2178.77,2151.18l-11.83,1.31l0,0L2178.77,2151.18z
	 M2159.36,1976.74l-11.83,1.32l0,0L2159.36,1976.74z M2006.42,1919.92l142.26,59.67l9.21-21.95l-142.26-59.66L2006.42,1919.92z
	 M2008.1,1919.81c-0.51,0.3-1.14,0.34-1.68,0.11l9.21-21.94c-6.37-2.67-13.63-2.18-19.59,1.32L2008.1,1919.81z M1699.45,2101.39
	l308.65-181.58l-12.06-20.51l-308.65,181.58L1699.45,2101.39z M1700.15,2098.85c0.49,0.9,0.19,2.02-0.7,2.54l-12.06-20.51
	c-10.22,6.01-13.81,19.08-8.07,29.46L1700.15,2098.85z M1837.04,2347l-136.89-248.15l-20.84,11.49l136.89,248.15L1837.04,2347z
	 M1834.44,2346.29c0.91-0.54,2.08-0.22,2.6,0.71l-20.84,11.49c5.96,10.8,19.64,14.55,30.28,8.32L1834.44,2346.29z M2167.86,2150.66
	l-333.42,195.63l12.04,20.52l333.42-195.63L2167.86,2150.66z M2166.94,2152.5c-0.08-0.74,0.28-1.45,0.92-1.83l12.04,20.52
	c7.46-4.38,11.65-12.73,10.69-21.32L2166.94,2152.5z M2147.54,1978.06l19.4,174.43l23.65-2.63l-19.41-174.43L2147.54,1978.06z
	 M2148.68,1979.59c-0.63-0.27-1.07-0.85-1.14-1.53l23.65-2.63c-0.88-7.9-5.97-14.71-13.3-17.79L2148.68,1979.59z M2117.81,2036.01
	c0,17.08-13.85,30.93-30.93,30.93v23.8c30.22,0,54.72-24.5,54.72-54.72H2117.81z M2086.88,2005.09c17.08,0,30.93,13.85,30.93,30.92
	h23.8c0-30.21-24.5-54.71-54.72-54.71V2005.09z M2055.96,2036.01c0-17.07,13.85-30.92,30.92-30.92v-23.8
	c-30.21,0-54.71,24.5-54.71,54.71H2055.96z M2086.88,2066.94c-17.07,0-30.92-13.85-30.92-30.93h-23.8
	c0,30.22,24.5,54.72,54.71,54.72V2066.94z"/>
<path class="st1" d="M2102.28,1982.94c-5.88-2.94-13.03-0.56-15.97,5.32c-2.94,5.88-0.56,13.02,5.32,15.96L2102.28,1982.94z
	 M2372.9,1841.33l-8.41-8.41l-1.1,1.1l-0.78,1.34L2372.9,1841.33z M2386.07,1844.99c4.64-4.65,4.64-12.18,0-16.83
	c-4.65-4.64-12.18-4.64-16.83,0L2386.07,1844.99z M2091.63,2004.22c34.57,17.28,181.31,33.06,291.57-156.92l-20.58-11.95
	c-104.4,179.89-237.81,158.85-260.33,147.58L2091.63,2004.22z M2381.32,1849.74l4.76-4.76l-16.83-16.83l-4.76,4.76L2381.32,1849.74z
	"/>
<path class="st4" d="M2014.07,2071.9c-76.27,24.29-112.17,35.04-168.42,149.72"/>
<circle class="st12" cx="1968.49" cy="2179.13" r="30.92"/>
<circle class="st12" cx="1863.82" cy="2064.94" r="30.92"/>
<path class="st11" d="M2083.06,460.82l96.9-40.64c1.99-0.83,4.24-0.68,6.1,0.41l210.24,123.68c3.18,1.87,4.3,5.94,2.52,9.17
	l-93.25,169.02c-1.85,3.36-6.11,4.53-9.42,2.59l-227.11-133.25c-2.32-1.36-3.63-3.96-3.32-6.64l13.22-118.82
	C2079.19,463.9,2080.77,461.78,2083.06,460.82z M2128.28,535.89c-16.1,0-29.16-13.06-29.16-29.17c0-16.11,13.06-29.17,29.16-29.17
	c16.11,0,29.17,13.06,29.17,29.17C2157.45,522.84,2144.39,535.89,2128.28,535.89z"/>
<path class="st1" d="M2179.95,420.18l-3.13-7.47l0,0L2179.95,420.18z M2083.06,460.82l3.13,7.47l0,0L2083.06,460.82z
	 M2186.05,420.59l4.11-6.98l0,0L2186.05,420.59z M2396.29,544.27l4.11-6.98l0,0L2396.29,544.27z M2398.81,553.44l-7.1-3.91l0,0
	L2398.81,553.44z M2305.56,722.47l-7.09-3.91L2305.56,722.47z M2296.14,725.06l-4.1,6.99l0,0L2296.14,725.06z M2069.03,591.81
	l4.1-6.99L2069.03,591.81z M2065.7,585.17l-8.06-0.9l0,0L2065.7,585.17z M2078.92,466.36l-8.06-0.9l0,0L2078.92,466.36z
	 M2183.09,427.65l-96.9,40.64l-6.26-14.95l96.9-40.64L2183.09,427.65z M2181.94,427.58c0.35,0.2,0.77,0.23,1.15,0.08l-6.27-14.95
	c4.34-1.82,9.28-1.49,13.34,0.9L2181.94,427.58z M2392.18,551.26l-210.24-123.68l8.22-13.97l210.24,123.68L2392.18,551.26z
	 M2391.7,549.53c-0.33,0.61-0.13,1.37,0.47,1.73l8.22-13.97c6.96,4.1,9.4,13,5.5,20.07L2391.7,549.53z M2298.47,718.55l93.24-169.02
	l14.19,7.83l-93.25,169.02L2298.47,718.55z M2300.23,718.07c-0.62-0.37-1.42-0.14-1.77,0.49l14.19,7.83
	c-4.05,7.35-13.38,9.91-20.62,5.66L2300.23,718.07z M2073.13,584.82l227.1,133.25l-8.2,13.98L2064.92,598.8L2073.13,584.82z
	 M2073.75,586.07c0.06-0.5-0.19-0.99-0.62-1.25l-8.21,13.98c-5.07-2.98-7.93-8.67-7.28-14.52L2073.75,586.07z M2086.97,467.25
	l-13.21,118.82l-16.11-1.79l13.21-118.81L2086.97,467.25z M2086.19,468.29c0.43-0.18,0.73-0.58,0.78-1.04l-16.11-1.79
	c0.6-5.38,4.07-10.02,9.07-12.11L2086.19,468.29z M2107.23,506.73c0,11.63,9.43,21.06,21.06,21.06V544
	c-20.58,0-37.26-16.69-37.26-37.27H2107.23z M2128.28,485.67c-11.63,0-21.06,9.43-21.06,21.06h-16.21
	c0-20.58,16.68-37.27,37.26-37.27V485.67z M2149.35,506.73c0-11.63-9.43-21.06-21.07-21.06v-16.21c20.59,0,37.27,16.69,37.27,37.27
	H2149.35z M2128.28,527.79c11.63,0,21.07-9.43,21.07-21.06h16.21c0,20.58-16.68,37.27-37.27,37.27V527.79z"/>
<path class="st1" d="M1932.81,404.35l-0.85-8.06c-4.39,0.47-7.59,4.35-7.22,8.74L1932.81,404.35z M2119.28,510.69l1.91-7.88
	l-1.03-0.25l-1.05,0.02L2119.28,510.69z M2123.74,511.77l-1.91,7.88c3.57,0.86,7.27-0.78,9.02-4c1.75-3.22,1.12-7.22-1.54-9.75
	L2123.74,511.77z M1924.73,405.04c2.23,26.23,45.17,117.13,194.74,113.75l-0.36-16.2c-141.63,3.19-176.77-81.83-178.23-98.92
	L1924.73,405.04z M2117.38,518.57l4.45,1.08l3.81-15.75l-4.45-1.08L2117.38,518.57z M2129.32,505.89
	c-36.14-34.33-65.29-63.98-94.99-83.7c-30.28-20.1-61.6-30.24-102.38-25.9l1.71,16.12c36.51-3.89,64.11,4.97,91.7,23.29
	c28.18,18.7,55.86,46.87,92.79,81.94L2129.32,505.89z"/>
<path class="st13" d="M2171.65,592.54l22.5-24c10.51-11.2,29.02-8.18,35.42,5.78l0,0c7.64,16.66,31.24,16.85,39.15,0.32l6.67-13.95
	c3.7-7.73,11.51-12.66,20.09-12.66h36.41"/>
</svg>
